<svg xmlns="http://www.w3.org/2000/svg" width="500" height="372.608" viewBox="0 0 500 372.608"><defs><style>.a{fill:#ebebeb;}.b{fill:#e6e6e6;}.c{fill:#f0f0f0;}.d,.i{fill:#fff;}.e{fill:#e0e0e0;}.f{fill:#f5f5f5;}.g{fill:#fafafa;}.h,.k,.t{fill:#006533;}.i,.s,.t{opacity:0.3;}.j{fill:#017a74;}.k{opacity:0.6;}.l{fill:#876d55;}.m{fill:#263238;}.n{fill:#755d49;}.o{opacity:0.2;}.p{fill:#18d6d0;}.q{opacity:0.4;}.r{fill:#9b7d64;}</style></defs><g transform="translate(0 -54.953)"><rect class="a" width="500" height="0.25" transform="translate(0 382.398)"/><rect class="a" width="25.459" height="0.25" transform="translate(290.208 389.208)"/><rect class="a" width="60.333" height="0.25" transform="translate(395.111 394.619)"/><rect class="a" width="62.333" height="0.25" transform="translate(222.459 389.333)"/><rect class="a" width="13.041" height="0.25" transform="translate(169 396.814)"/><rect class="a" width="59.376" height="0.25" transform="translate(194.708 396.814)"/><rect class="a" width="38.454" height="0.25" transform="translate(52.459 392.592)"/><path class="a" d="M237.014,337.8H43.915a5.715,5.715,0,0,1-5.708-5.708V60.66a5.714,5.714,0,0,1,5.708-5.707h193.1a5.714,5.714,0,0,1,5.707,5.707V332.092A5.715,5.715,0,0,1,237.014,337.8ZM43.915,55.2a5.463,5.463,0,0,0-5.458,5.457V332.092a5.464,5.464,0,0,0,5.458,5.458h193.1a5.463,5.463,0,0,0,5.457-5.458V60.66a5.463,5.463,0,0,0-5.457-5.457Z"/><path class="a" d="M453.31,337.8h-193.1a5.714,5.714,0,0,1-5.707-5.708V60.66a5.713,5.713,0,0,1,5.707-5.707h193.1a5.714,5.714,0,0,1,5.709,5.707V332.092A5.715,5.715,0,0,1,453.31,337.8ZM260.212,55.2a5.463,5.463,0,0,0-5.457,5.457V332.092a5.463,5.463,0,0,0,5.457,5.458h193.1a5.464,5.464,0,0,0,5.459-5.458V60.66A5.464,5.464,0,0,0,453.31,55.2Z"/><path class="b" d="M195.962,295.667h-66.4l-4.031-46.5h66.4Z"/><path class="c" d="M199.4,295.667H133l-4.031-46.5h66.4Z"/><path class="d" d="M142.077,285.681l-2.213-26.529h46.429l2.213,26.529Z"/><rect class="b" width="7.791" height="86.73" transform="translate(203.099 295.667)"/><rect class="c" width="5.411" height="86.73" transform="translate(207.938 295.667)"/><rect class="c" width="75.409" height="9.573" transform="translate(213.348 305.239) rotate(180)"/><rect class="b" width="7.791" height="77.157" transform="translate(132.814 305.239)"/><rect class="c" width="5.411" height="77.157" transform="translate(137.653 305.239)"/><rect class="b" width="7.791" height="77.157" transform="translate(77.357 305.239)"/><rect class="c" width="5.411" height="77.157" transform="translate(82.196 305.239)"/><rect class="b" width="7.791" height="77.157" transform="translate(153.796 305.239)"/><rect class="c" width="5.411" height="77.157" transform="translate(158.635 305.239)"/><rect class="b" width="60.582" height="9.573" transform="translate(77.357 295.667)"/><rect class="e" width="234.33" height="130.456" transform="translate(129.508 79.414)"/><rect class="f" width="246.015" height="130.456" transform="translate(130.691 79.414)"/><rect class="d" width="122.417" height="237.976" transform="translate(372.687 83.433) rotate(90)"/><path class="f" d="M231.066,205.85,276,83.433h-74.15L156.916,205.85Z"/><path class="f" d="M302.441,205.85,347.37,83.433H291.434L246.5,205.85Z"/><rect class="b" width="19.919" height="124.595" transform="translate(418.192 257.803)"/><path class="g" d="M432.874,382.4h5.238V372.8H427.382Z"/><rect class="b" width="19.919" height="124.595" transform="translate(234.535 257.803)"/><rect class="g" width="188.228" height="122.007" transform="translate(249.883 257.803)"/><path class="b" d="M434.548,297.169h-181.1V262.711h181.1Zm-180.1-1h179.1V263.711h-179.1Z"/><path class="b" d="M402.667,279.441H288.845c-5.286,0-10.375-4.264-13.96-11.7l-.346-.717H416.974l-.346.717C413.043,275.177,407.954,279.441,402.667,279.441ZM276.141,268.026c3.383,6.631,7.984,10.415,12.7,10.415H402.667c4.72,0,9.321-3.784,12.705-10.415Z"/><path class="g" d="M255.121,382.4h-5.238V372.8h10.729Z"/><path class="b" d="M434.548,336.036h-181.1V301.577h181.1Zm-180.1-1h179.1V302.577h-179.1Z"/><path class="b" d="M402.667,318.307H288.845c-5.286,0-10.375-4.263-13.96-11.7l-.346-.717H416.974l-.346.717C413.043,314.044,407.954,318.307,402.667,318.307ZM276.141,306.892c3.383,6.631,7.984,10.415,12.7,10.415H402.667c4.721,0,9.321-3.784,12.705-10.415Z"/><path class="b" d="M434.548,374.9h-181.1V340.443h181.1Zm-180.1-1h179.1V341.443h-179.1Z"/><path class="b" d="M402.667,357.173H288.845c-5.286,0-10.375-4.263-13.96-11.7l-.346-.718H416.974l-.346.718C413.043,352.91,407.954,357.173,402.667,357.173ZM276.141,345.758c3.383,6.631,7.984,10.415,12.7,10.415H402.667c4.721,0,9.321-3.784,12.705-10.415Z"/><path class="b" d="M120.983,274.283V276.7h-1.548l-1.278,18.965H99.322L98.045,276.7H96.5v-2.418Z"/><path class="b" d="M114.784,227.211c-1.549-11.3-16.795-14.524-36.142-14.938-18.411-.393-24.308-6.908-24.308-6.908s.058,26.379,26.587,35.93C106.112,250.364,116.335,238.528,114.784,227.211Z"/><path class="b" d="M105.379,252.824c.323-4.647,7.742-13.186,25.587-9.3,12.9,2.807,17.7-3.882,17.7-3.882s-1.2,18.879-20.6,24.555C109.638,269.583,104.81,261,105.379,252.824Z"/><path class="b" d="M109.45,281.4a.686.686,0,0,0,.526-.244c1.294-1.529.235-5.19-1.229-10.258-1.88-6.5-4.219-14.6-2.238-20.475a82.572,82.572,0,0,1,3.839-9.073c2.8-5.924,5.22-11.04,3.2-16.382a.688.688,0,0,0-1.288.486c1.811,4.8-.382,9.435-3.159,15.308a84.81,84.81,0,0,0-3.9,9.221c-2.119,6.286.287,14.609,2.219,21.3,1.14,3.944,2.319,8.021,1.5,8.987a.689.689,0,0,0,.525,1.133Z"/><ellipse class="f" cx="193.889" cy="11.323" rx="193.889" ry="11.323" transform="translate(56.111 404.915)"/><path class="h" d="M249.96,361.048h-142l-7.773-228.367h142Z"/><path class="h" d="M257.047,353.961h-142l-7.773-228.367h142Z"/><path class="i" d="M257.047,353.961h-142l-7.773-228.367h142Z"/><ellipse class="j" cx="39.269" cy="40.629" rx="39.269" ry="40.629" transform="matrix(0.701, -0.713, 0.713, 0.701, 124.001, 190.612)"/><path class="d" d="M213.469,191.089a32,32,0,0,1-3.45,15.7,31.6,31.6,0,0,1-28.394,17.263,34.29,34.29,0,0,1-29.57-17.263,33.576,33.576,0,0,1-4.518-15.7,31.645,31.645,0,0,1,31.844-32.966A34.354,34.354,0,0,1,213.469,191.089Z"/><path class="k" d="M210.019,206.792a31.6,31.6,0,0,1-28.394,17.263,34.29,34.29,0,0,1-29.57-17.263,50.556,50.556,0,0,1,28.684-8.781A53.427,53.427,0,0,1,210.019,206.792Z"/><ellipse class="k" cx="14.437" cy="14.937" rx="14.437" ry="14.937" transform="matrix(0.701, -0.713, 0.713, 0.701, 159.347, 179.633)"/><path class="d" d="M228.524,271.261H137.94l-.613-18h90.585Z"/><path class="d" d="M229.62,303.434H139.035l-.613-18h90.585Z"/><path class="j" d="M194.658,287.908l-21.828,2.968a1.524,1.524,0,0,0-1.317,1.807l2.866,14.628a1.753,1.753,0,0,0,1.939,1.365l21.828-2.969a1.521,1.521,0,0,0,1.317-1.807L196.6,289.272A1.756,1.756,0,0,0,194.658,287.908Zm-6.272,14.819-3.952.538-.4-4.722a2.782,2.782,0,0,1-1.622-1.995,2.485,2.485,0,0,1,2.153-2.955,2.861,2.861,0,0,1,3.164,2.232,2.434,2.434,0,0,1-.776,2.322Z"/><path class="j" d="M192.5,287.124h0a1.552,1.552,0,0,1-1.72-1.211l-.281-1.432a8.23,8.23,0,0,0-8.619-6.56,7.041,7.041,0,0,0-6.468,8.394l.323,1.644a1.347,1.347,0,0,1-1.169,1.6h0a1.55,1.55,0,0,1-1.72-1.21l-.273-1.4a9.849,9.849,0,0,1,7.974-11.745,11.194,11.194,0,0,1,12.8,8.665l.322,1.644A1.348,1.348,0,0,1,192.5,287.124Z"/><path class="j" d="M214.667,328.639H155.7l-.4-11.717h58.963Z"/><path class="j" d="M186.218,262.261a3.161,3.161,0,0,1-3.18,3.292,3.432,3.432,0,0,1-3.4-3.292,3.161,3.161,0,0,1,3.181-3.292A3.431,3.431,0,0,1,186.218,262.261Z"/><path class="j" d="M172.045,262.261a3.161,3.161,0,0,1-3.18,3.292,3.431,3.431,0,0,1-3.4-3.292,3.161,3.161,0,0,1,3.18-3.292A3.431,3.431,0,0,1,172.045,262.261Z"/><path class="j" d="M157.872,262.261a3.161,3.161,0,0,1-3.181,3.292,3.431,3.431,0,0,1-3.4-3.292,3.161,3.161,0,0,1,3.18-3.292A3.431,3.431,0,0,1,157.872,262.261Z"/><path class="j" d="M200.391,262.261a3.161,3.161,0,0,1-3.18,3.292,3.431,3.431,0,0,1-3.4-3.292,3.161,3.161,0,0,1,3.18-3.292A3.431,3.431,0,0,1,200.391,262.261Z"/><path class="j" d="M214.565,262.261a3.161,3.161,0,0,1-3.181,3.292,3.431,3.431,0,0,1-3.4-3.292,3.161,3.161,0,0,1,3.18-3.292A3.432,3.432,0,0,1,214.565,262.261Z"/><path class="l" d="M333.91,174.28c1.334,2.135,2.436,4.185,3.579,6.312,1.139,2.106,2.17,4.272,3.18,6.456a92.89,92.89,0,0,1,5.1,13.731c.178.593.314,1.22.462,1.835l.219.926.109.462.129.763a13.366,13.366,0,0,1-.312,5.15,29.17,29.17,0,0,1-3.111,7.457,59.52,59.52,0,0,1-8.886,11.673l-4.211-3.188A111.892,111.892,0,0,0,335.8,213.82a25.4,25.4,0,0,0,1.526-5.632,4.449,4.449,0,0,0-.082-1.767l-.4-1.222c-.164-.5-.309-1-.508-1.507a110.568,110.568,0,0,0-5.269-12.084c-1.967-3.981-4.147-8.034-6.293-11.817Z"/><path class="l" d="M331.236,224.425l-4.592,2.438,5.279,6.18s3.295-2.229,3.443-5.633Z"/><path class="l" d="M320.466,230.673l5.656,4.488,5.8-2.118-5.278-6.18Z"/><path class="m" d="M301.151,141.565c-.113.556-.5.946-.863.872s-.566-.584-.453-1.14.5-.947.863-.873S301.264,141.009,301.151,141.565Z"/><path class="n" d="M300.7,142.522a20.3,20.3,0,0,1-3.623,4.215,3.27,3.27,0,0,0,2.555,1.038Z"/><path class="l" d="M298.9,162.138l.043-6.554,8.68,1.049s-.149,5.636-5,7.293Z"/><path class="l" d="M301.4,150.864l6.112,1.756.117,4.013-8.68-1.049Z"/><path class="o" d="M307.51,152.62l-6.11-1.76-1.19,2.28a9.733,9.733,0,0,0,5.64,8.48,9.56,9.56,0,0,0,1.77-4.99Z"/><path class="m" d="M303.814,138.891a.328.328,0,0,0,.226-.089.332.332,0,0,0,.019-.47,3.306,3.306,0,0,0-2.835-1.1.333.333,0,0,0,.11.657h0a2.643,2.643,0,0,1,2.235.9A.333.333,0,0,0,303.814,138.891Z"/><path class="l" d="M316.591,151.683c-1.009,5.146-1.618,12.275,1.982,15.709,0,0-1.407,5.22-10.968,5.22-10.514,0-5.058-4.581-5.058-4.581,4.37-1.357,4.332-6.335,3.333-10.333Z"/><path class="p" d="M320.542,170.833c.936-1.326.9-5.515-.1-6.254-1.614-1.194-8.517-1.468-17.816.671,1,4.058-1.143,6.185-1.143,6.185Z"/><path class="p" d="M351.8,408.237a2.265,2.265,0,0,1-1.751-.1.68.68,0,0,1-.161-.774.771.771,0,0,1,.429-.49c.95-.453,3.132.436,3.225.474a.168.168,0,0,1,.1.149.166.166,0,0,1-.094.155A8.853,8.853,0,0,1,351.8,408.237Zm-1.144-1.124a.9.9,0,0,0-.2.065.446.446,0,0,0-.253.284c-.089.3.022.394.059.425.378.322,1.782.025,2.772-.371A5.493,5.493,0,0,0,350.651,407.113Z"/><path class="p" d="M353.508,407.668a.159.159,0,0,1-.081,0c-.8-.232-2.5-1.441-2.518-2.238a.544.544,0,0,1,.427-.539.908.908,0,0,1,.738.059c.94.48,1.534,2.428,1.559,2.51a.169.169,0,0,1-.041.166A.173.173,0,0,1,353.508,407.668Zm-1.99-2.486a.661.661,0,0,0-.073.02c-.206.072-.2.173-.2.216.012.472,1.134,1.42,1.958,1.8a4.02,4.02,0,0,0-1.278-1.979A.592.592,0,0,0,351.518,405.182Z"/><path class="p" d="M299.864,409.417c-.9,0-1.774-.124-2.066-.53a.63.63,0,0,1,.014-.728.829.829,0,0,1,.528-.389c1.17-.319,3.628,1.082,3.733,1.142a.167.167,0,0,1-.051.308A12.391,12.391,0,0,1,299.864,409.417Zm-1.115-1.364a1.242,1.242,0,0,0-.322.038.5.5,0,0,0-.326.233c-.118.207-.075.31-.033.369.328.454,2.105.465,3.413.28A7.52,7.52,0,0,0,298.749,408.053Z"/><path class="p" d="M301.989,409.223a.164.164,0,0,1-.068-.015c-.849-.381-2.531-1.9-2.4-2.7.03-.187.163-.419.62-.466a1.214,1.214,0,0,1,.924.286,4.757,4.757,0,0,1,1.092,2.71.166.166,0,0,1-.068.151A.172.172,0,0,1,301.989,409.223Zm-1.716-2.852a.845.845,0,0,0-.1.006c-.3.03-.319.148-.325.187-.077.477,1.066,1.673,1.932,2.193a3.906,3.906,0,0,0-.929-2.169A.886.886,0,0,0,300.273,406.371Z"/><path class="l" d="M309.724,409.056H302.69l-.7-16.289h7.034Z"/><path class="l" d="M361.349,405.8l-6.875,1.488-6.9-15.172,6.874-1.488Z"/><path class="m" d="M353.814,406.6l7.723-1.672a.613.613,0,0,1,.687.343l2.681,5.816a1.035,1.035,0,0,1-.742,1.441c-2.706.537-4.05.663-7.447,1.4-2.089.452-6.806,1.6-9.692,2.226-2.822.611-3.88-2.147-2.754-2.661,5.045-2.305,7.154-4.335,8.519-6.227A1.71,1.71,0,0,1,353.814,406.6Z"/><path class="m" d="M302.736,408.242h7.682a.613.613,0,0,1,.6.48l1.39,6.252a1.023,1.023,0,0,1-1.012,1.251c-2.771-.047-6.775-.209-10.257-.209-4.073,0-7.59.222-12.365.222-2.887,0-3.689-2.919-2.48-3.184,5.5-1.2,9.995-1.332,14.75-4.264A3.252,3.252,0,0,1,302.736,408.242Z"/><path class="p" d="M331.167,168.982c6.592,1.512,12.027,18.341,12.027,18.341l-13.238,10.09a28.885,28.885,0,0,1-7.021-13C320.669,175.593,324.426,167.437,331.167,168.982Z"/><path class="q" d="M331.167,168.982c6.592,1.512,12.027,18.341,12.027,18.341l-13.238,10.09a28.885,28.885,0,0,1-7.021-13C320.669,175.593,324.426,167.437,331.167,168.982Z"/><path class="l" d="M296.5,189.067c-1.646,1.775-3.286,3.354-4.985,4.98q-1.264,1.211-2.586,2.376l-1.328,1.163-.335.289c-.162.139-.359.3-.57.466a8.393,8.393,0,0,1-1.932,1.14,6.359,6.359,0,0,1-2.432.5,5.9,5.9,0,0,1-2.1-.373,5.837,5.837,0,0,1-2-1.272,6.039,6.039,0,0,1-1.568-2.589,7.234,7.234,0,0,1-.285-1.487,9.633,9.633,0,0,1,.02-1.788c.047-.48.112-.9.186-1.287a25.162,25.162,0,0,1,1.161-4.031,37.5,37.5,0,0,1,1.554-3.615c.634-1.273,1.248-2.2,1.858-3.263a81.616,81.616,0,0,1,8.452-11.457,77.173,77.173,0,0,1,10.252-9.718l3.68,3.788c-2.585,3.458-5.127,7.166-7.477,10.821a117.672,117.672,0,0,0-6.4,11.246c-.432.942-.964,1.974-1.264,2.762a27.675,27.675,0,0,0-.938,2.7,19.12,19.12,0,0,0-.568,2.526,3.646,3.646,0,0,0-.033.4c0,.078.018.12.008-.092a2.841,2.841,0,0,0-.129-.655,4.335,4.335,0,0,0-1.154-1.859,4.79,4.79,0,0,0-3.331-1.351,4.219,4.219,0,0,0-1.613.308,4.122,4.122,0,0,0-.495.247l.384-.35,1.2-1.1,2.391-2.239c1.583-1.491,3.174-3.081,4.678-4.556Z"/><path class="o" d="M325.517,181.358c3.581,3.543,4.749,10,5.026,15.607l-.584.45a28.909,28.909,0,0,1-7.027-13c-.134-.527-.249-1.054-.345-1.571Z"/><path class="p" d="M289.508,176.035c-1.437,7.6-2.337,23.2,1.837,54.1h37.621c.259-5.775-3.369-33.947,2.2-61.158a98.133,98.133,0,0,0-12.594-1.59,138.2,138.2,0,0,0-15.993,0c-1.764.162-3.495.416-5.038.689A9.955,9.955,0,0,0,289.508,176.035Z"/><path class="q" d="M289.508,176.035c-1.437,7.6-2.337,23.2,1.837,54.1h37.621c.259-5.775-3.369-33.947,2.2-61.158a98.133,98.133,0,0,0-12.594-1.59,138.2,138.2,0,0,0-15.993,0c-1.764.162-3.495.416-5.038.689A9.955,9.955,0,0,0,289.508,176.035Z"/><path class="o" d="M295.265,187.266l-6.8-1.628c-.21,4.117-.229,9.221.077,15.53C291.675,197.606,295.667,192.053,295.265,187.266Z"/><path class="o" d="M301.991,392.772l.36,8.4h7.037l-.36-8.4Z"/><path class="o" d="M354.451,390.632l-6.877,1.489,3.561,7.82,6.877-1.489Z"/><path class="l" d="M319.934,144.155c-1.807,6.743-2.522,10.781-6.683,13.585-6.259,4.217-14.052-.623-14.3-7.77-.22-6.432,2.772-16.378,10.008-17.737A9.521,9.521,0,0,1,319.934,144.155Z"/><path class="m" d="M304.147,144.414c-.333-.9-1.892-7.873-.429-9.681s18.111-.508,20.573,1.915c4.084,4.019,1.251,7.606-3.221,12.234-3.362,3.479-3.492,7.4-5.188,7.978-2.972,1.009-7.58.061-8.5-3.112S304.147,144.414,304.147,144.414Z"/><path class="m" d="M322.274,128.722c-5.885-2.5-16.918.266-22.875-1.17a9.178,9.178,0,0,0,7.606,9.362,78.456,78.456,0,0,0,15,1.383C328.548,138.031,327.271,130.85,322.274,128.722Z"/><path class="m" d="M323.194,136.861a11.163,11.163,0,0,0,6.223-1.194C330.521,138.326,324.472,139.056,323.194,136.861Z"/><path class="r" d="M307.354,144.691a7.891,7.891,0,0,1-1.976,4.665c-1.533,1.69-3.134.638-3.4-1.42-.245-1.852.258-4.962,2.133-5.894C305.953,141.124,307.478,142.6,307.354,144.691Z"/><path class="h" d="M304.69,230.14s7.983,53.754,12.365,73.891c4.8,22.053,30.531,95.014,30.531,95.014l12.591-2.726s-17.993-59.458-22.021-90.288c-3.093-23.682-9.19-75.891-9.19-75.891Z"/><path class="m" d="M344.571,394.842c-.054.011,2.347,4.553,2.347,4.553l14.166-3.067-1.194-4.259Z"/><path class="s" d="M309.735,249.292c9.23,1.81,8.254,36.23,7.143,53.934-2.662-12.514-6.559-36.594-9.22-53.685A3.155,3.155,0,0,1,309.735,249.292Z"/><path class="h" d="M291.345,230.14s-.969,52.59-.2,74.04c.8,22.31,8.589,95.362,8.589,95.362h11.915s.438-71.748.968-93.66c.578-23.887,3.462-75.742,3.462-75.742Z"/><path class="m" d="M297.437,394.8c-.055,0,.672,4.947.672,4.947H312.6l.392-4.415Z"/><path class="p" d="M304.252,178.342c3.372,9.089-16.442,19.795-16.442,19.795l-8.578-11.028s5.722-11.391,12.745-16.525C300.653,164.241,301.684,171.423,304.252,178.342Z"/><path class="q" d="M304.252,178.342c3.372,9.089-16.442,19.795-16.442,19.795l-8.578-11.028s5.722-11.391,12.745-16.525C300.653,164.241,301.684,171.423,304.252,178.342Z"/><ellipse class="h" cx="36.087" cy="23" rx="36.087" ry="23" transform="translate(345.788 63.333)"/><path class="d" d="M368.846,97.91a10.113,10.113,0,0,1-9.928-8.393,10.219,10.219,0,0,1,7.709-11.565h0a10.058,10.058,0,0,1,10.823,4.516l23.167-4.781a3.626,3.626,0,0,1,4.246,2.5,3.489,3.489,0,0,1-2.67,4.305l-.608.126a.607.607,0,0,0-.418.308.614.614,0,0,0-.035.519l.408,1.062a1.585,1.585,0,0,1-.616,1.923,1.949,1.949,0,0,0-.9,1.414,1.547,1.547,0,0,1-1.2,1.388l-.476.1a1.553,1.553,0,0,1-1.655-.8,1.945,1.945,0,0,0-3.61.745,1.551,1.551,0,0,1-1.2,1.386l-.467.1a1.554,1.554,0,0,1-1.654-.8,1.954,1.954,0,0,0-1.392-.942,1.586,1.586,0,0,1-1.329-1.522l-.046-1.137a.6.6,0,0,0-.236-.462.609.609,0,0,0-.507-.119L378.863,89.3a10.08,10.08,0,0,1-7.951,8.393A10.22,10.22,0,0,1,368.846,97.91Zm-2-18.983a9.206,9.206,0,0,0-6.944,10.42,9.1,9.1,0,0,0,18.013-.517l.041-.36,8.085-1.669a1.618,1.618,0,0,1,1.945,1.52l.046,1.137a.593.593,0,0,0,.476.573,2.929,2.929,0,0,1,2.11,1.429.569.569,0,0,0,.588.319l.467-.1a.57.57,0,0,0,.414-.526,2.945,2.945,0,0,1,5.468-1.128.562.562,0,0,0,.587.318l.477-.1a.563.563,0,0,0,.411-.523,2.917,2.917,0,0,1,1.364-2.148.591.591,0,0,0,.21-.714L400.2,85.8a1.618,1.618,0,0,1,1.185-2.166l.608-.126a2.488,2.488,0,0,0,1.9-3.073,2.613,2.613,0,0,0-3.078-1.769l-23.869,4.926-.179-.315a9.056,9.056,0,0,0-9.922-4.351Zm2.011,15.286a6.419,6.419,0,1,1,1.306-.133h0A6.512,6.512,0,0,1,368.859,94.213Zm.03-11.813a5.522,5.522,0,0,0-1.111.115A5.4,5.4,0,0,0,369.964,93.1h0a5.406,5.406,0,0,0-1.075-10.7Z"/><ellipse class="k" cx="11.861" cy="7.56" rx="11.861" ry="7.56" transform="translate(340.634 107.698)"/><ellipse class="t" cx="4.869" cy="3.103" rx="4.869" ry="3.103" transform="translate(328.76 119.714)"/></g></svg>